<svg
    width="275"
    height="100%"
    maxheight="134"
    viewBox="0 0 512.001 512.001"
    xmlns="http://www.w3.org/2000/svg"
    xmlnsXlink="http://www.w3.org/1999/xlink"
  >
    <g>
      <path
        fill="#E0F3FC"
        d="M226.011,407c0,31.199-13.801,60.3-37.5,80.4c-18.9,15.899-42.9,24.6-67.8,24.6   c-6,0-12.299-0.601-18.3-1.5C59.811,503,25.01,468.199,17.51,425.6c-5.7-33.6,4.801-67.5,28.5-91.5V75c0-41.4,33.3-74.7,74.7-75   h0.3c41.4,0,75,33.6,75,75v15l-21.301,16.199L196.011,120v31l-17.999,19.499L196.011,181v30l-16.199,8.699L196.011,241v30   l-16.8,16.8l16.8,13.2v33.1C215.211,353.599,226.011,379.999,226.011,407z"
      />
      <path
        fill="#BDD9F1"
        d="M226.011,407c0,31.199-13.801,60.3-37.5,80.4c-18.9,15.899-42.9,24.6-67.8,24.6V0h0.3   c41.4,0,75,33.6,75,75v15l-21.301,16.199L196.011,120v31l-17.999,19.499L196.011,181v30l-16.199,8.699L196.011,241v30l-16.8,16.8   l16.8,13.2v33.1C215.211,353.599,226.011,379.999,226.011,407z"
      />
      <g>
        <g>
          <path
            fill="#F9BD13"
            d="M376.011,76v60c0,8.399-6.599,15-15,15s-15-6.601-15-15V76c0-8.401,6.599-15,15-15     S376.011,67.599,376.011,76z"
          />
        </g>
      </g>
      <g>
        <g>
          <path
            fill="#F9BD13"
            d="M376.011,256v60c0,8.399-6.599,15-15,15s-15-6.601-15-15v-60c0-8.401,6.599-15,15-15     S376.011,247.599,376.011,256z"
          />
        </g>
      </g>
      <g>
        <g>
          <path
            fill="#F9BD13"
            d="M318.589,168.578c-3.838,0-7.676-1.465-10.605-4.395l-42.437-42.437     c-5.859-5.859-5.859-15.352,0-21.211s15.352-5.859,21.211,0l42.437,42.437c5.859,5.859,5.859,15.352,0,21.211     C326.265,167.113,322.427,168.578,318.589,168.578z"
          />
        </g>
      </g>
      <g>
        <path
          fill="#F6901E"
          d="M445.869,295.858c-3.838,0-7.676-1.465-10.605-4.395l-42.437-42.437    c-5.859-5.859-5.859-15.352,0-21.211s15.352-5.859,21.211,0l42.437,42.437c5.859,5.859,5.859,15.352,0,21.211    C453.545,294.394,449.707,295.858,445.869,295.858z"
        />
      </g>
      <g>
        <g>
          <path
            fill="#F6901E"
            d="M403.432,168.578c-3.838,0-7.676-1.465-10.605-4.395c-5.859-5.859-5.859-15.352,0-21.211     l42.437-42.437c5.859-5.859,15.352-5.859,21.211,0s5.859,15.352,0,21.211l-42.437,42.437     C411.108,167.113,407.27,168.578,403.432,168.578z"
          />
        </g>
      </g>
      <g>
        <g>
          <path
            fill="#F9BD13"
            d="M276.152,295.858c-3.838,0-7.676-1.465-10.605-4.395c-5.859-5.859-5.859-15.352,0-21.211     l42.437-42.437c5.859-5.859,15.352-5.859,21.211,0s5.859,15.352,0,21.211l-42.437,42.437     C283.828,294.394,279.99,295.858,276.152,295.858z"
          />
        </g>
      </g>
      <g>
        <g>
          <path
            fill="#F9BD13"
            d="M301.011,211h-60c-8.291,0-15-6.709-15-15s6.709-15,15-15h60c8.291,0,15,6.709,15,15     S309.302,211,301.011,211z"
          />
        </g>
      </g>
      <g>
        <g>
          <path
            fill="#F6901E"
            d="M481.011,211h-60c-8.291,0-15-6.709-15-15s6.709-15,15-15h60c8.291,0,15,6.709,15,15     S489.302,211,481.011,211z"
          />
        </g>
      </g>
      <g>
        <path
          fill="#F9BD13"
          d="M136.011,166v211c0,8.399-6.599,15-15,15h-0.3c-8.399-0.3-14.7-6.601-14.7-15V166    c0-8.401,6.301-14.7,14.7-15h0.3C129.411,151,136.011,157.599,136.011,166z"
        />
      </g>
      <g>
        <path
          fill="#F9BD13"
          d="M136.011,364.699c-4.799-1.8-9.6-2.699-15-2.699h-0.3c-5.4,0-9.901,0.899-14.7,2.699    c-17.401,6-30,22.8-30,42.301c0,24.899,19.799,44.7,44.7,45h0.3c24.901,0,45-20.101,45-45    C166.011,387.499,153.411,370.699,136.011,364.699z"
        />
      </g>
      <g>
        <path
          fill="#F6901E"
          d="M196.011,90v30h-30c-8.401,0-15-6.601-15-15c0-8.401,6.599-15,15-15H196.011z"
        />
      </g>
      <g>
        <g>
          <path
            fill="#F6901E"
            d="M196.011,151v30h-30c-8.401,0-15-6.601-15-15c0-8.401,6.599-15,15-15H196.011z"
          />
        </g>
      </g>
      <g>
        <path
          fill="#F6901E"
          d="M196.011,211v30h-30c-8.401,0-15-6.601-15-15c0-8.401,6.599-15,15-15H196.011z"
        />
      </g>
      <g>
        <g>
          <path
            fill="#F6901E"
            d="M196.011,271v30h-30c-8.401,0-15-6.601-15-15c0-8.401,6.599-15,15-15H196.011z"
          />
        </g>
      </g>
      <path
        fill="#F6901E"
        d="M136.011,166v211c0,8.399-6.599,15-15,15h-0.3V151h0.3C129.411,151,136.011,157.599,136.011,166z"
      />
      <path
        fill="#F6901E"
        d="M166.011,407c0,24.899-20.099,45-45,45h-0.3v-90h0.3c5.4,0,10.201,0.899,15,2.699   C153.411,370.699,166.011,387.499,166.011,407z"
      />
      <path
        fill="#F6901E"
        d="M376.011,76v60c0,8.399-6.599,15-15,15V61C369.411,61,376.011,67.599,376.011,76z"
      />
      <path
        fill="#F6901E"
        d="M376.011,256v60c0,8.399-6.599,15-15,15v-90C369.411,241,376.011,247.599,376.011,256z"
      />
      <g>
        <g>
          <path
            fill="#FCD82D"
            d="M361.011,121c-41.4,0-75,33.6-75,75s33.6,75,75,75s75-33.6,75-75S402.411,121,361.011,121z"
          />
        </g>
      </g>
      <path
        fill="#F9BD13"
        d="M436.011,196c0,41.4-33.6,75-75,75V121C402.411,121,436.011,154.6,436.011,196z"
      />
    </g>
  </svg>