<svg id="icons" enable-background="new 0 0 64 64" 
height="40" 
viewBox="0 0 64 64" 
width="40" 
fill="rgba(255, 255, 255, .8)"
xmlns="http://www.w3.org/2000/svg">
<path d="m25.984 50.944v6.05c0 .553.447 1 1 1v1.008c-.553 0-1 .447-1 1s.447 1 1 1v2c0 .553.447 1 1 1h7.997.003c.361 0 .662-.201.838-.487.026-.042.063-.076.083-.122.021-.049.019-.104.032-.156.019-.076.047-.149.047-.231l.005-2.004c.551-.003.995-.448.995-.999 0-.549-.441-.992-.989-.998l.002-1.013c.547-.007.987-.449.987-.997v-6.039c6.988-2.475 12.016-9.13 12.016-16.954v-4.003c0-7.825-5.028-14.481-12.016-16.956v-6.041c0-.552-.447-1-1-1v-1.002c.553 0 1-.448 1-1s-.447-1-1-1v-2.001c0-.552-.447-1-1-1h-7.997c-.001 0-.002 0-.003 0-.138 0-.27.028-.389.079-.054.022-.095.065-.145.097-.059.038-.123.067-.173.116-.035.036-.055.085-.085.125-.046.063-.099.12-.129.192-.019.043-.017.096-.029.143-.021.08-.05.158-.05.245l-.005 2.004c-.55.003-.995.449-.995 1 0 .548.441.992.989.998l-.002 1.007c-.547.008-.987.45-.987.998v6.052c-6.971 2.483-11.984 9.131-11.984 16.944v4.003c0 7.812 5.013 14.459 11.984 16.942zm9.003 11.058h-6.003v-1h6.005zm.008-3h-6.011v-1.008h6.013zm.989-3.008h-8v-4.462c1.293.297 2.634.468 4.016.468 1.371 0 2.701-.168 3.984-.459zm-7.003-53.995h6.003v1.001h-6.005zm-.007 3.001h6.011v1.003h-6.013zm-.99 3.002h8v4.456c-1.283-.292-2.613-.459-3.984-.459-1.382 0-2.723.171-4.016.467zm4.016 5.997c8.822 0 16 7.178 16 16 0 8.821-7.178 15.998-16 15.998s-16-7.177-16-15.998c0-8.823 7.178-16 16-16zm0 33.997c6.035 0 11.374-2.996 14.642-7.567-2.482 5.628-8.107 9.571-14.642 9.571s-12.16-3.943-14.642-9.571c3.268 4.571 8.607 7.567 14.642 7.567z"/>

<path d="m21.484 31.999h3c.553 0 1-.448 1-1v-3.999c0-.552-.447-1-1-1h-3c-.553 0-1 .448-1 1v3.998c0 .553.448 1.001 1 1.001zm1-3.999h1v1.998h-1z"/>

<path d="m30.484 26h-3c-.553 0-1 .448-1 1v3.998c0 .552.447 1 1 1h3c.553 0 1-.448 1-1v-3.998c0-.552-.447-1-1-1zm-1 3.999h-1v-1.999h1z"/>

<path d="m36.484 31.999c.553 0 1-.448 1-1v-3.999c0-.552-.447-1-1-1h-3c-.553 0-1 .448-1 1v3.998c0 .552.447 1 1 1h3zm-2-3.999h1v1.998h-1z"/>

<path d="m38.484 27v3.998c0 .552.447 1 1 1h3c.553 0 1-.448 1-1v-3.998c0-.552-.447-1-1-1h-3c-.552 0-1 .448-1 1zm2 1h1v1.998h-1z"/>

<path d="m35.984 22c0-.552-.447-1-1-1h-6c-.553 0-1 .448-1 1s.447 1 1 1h6c.553 0 1-.448 1-1z"/>

<path d="m25.969 19.999h12.031c.553 0 1-.448 1-1s-.447-1-1-1h-12.031c-.553 0-1 .448-1 1s.447 1 1 1z"/>

<path d="m27.5 35c-1.93 0-3.5 1.57-3.5 3.5s1.57 3.5 3.5 3.5 3.5-1.57 3.5-3.5-1.57-3.5-3.5-3.5zm0 5c-.827 0-1.5-.673-1.5-1.5s.673-1.5 1.5-1.5 1.5.673 1.5 1.5-.673 1.5-1.5 1.5z"/>

<path d="m36.483 35c-1.93 0-3.5 1.57-3.5 3.5s1.57 3.5 3.5 3.5 3.5-1.57 3.5-3.5-1.57-3.5-3.5-3.5zm0 5c-.827 0-1.5-.673-1.5-1.5s.673-1.5 1.5-1.5 1.5.673 1.5 1.5-.672 1.5-1.5 1.5z"/>

</svg>